<svg aria-hidden="true" style="position: absolute; width: 0; height: 0; overflow: hidden;" version="1.1" xmlns="http://www.w3.org/2000/svg" xmlns:xlink="http://www.w3.org/1999/xlink">
<defs>
<symbol id="icon-circleci" viewBox="0 0 32 32">
<path d="M11.951 16c0-2.112 1.712-3.807 3.807-3.807 2.096 0 3.808 1.712 3.808 3.807 0 2.096-1.712 3.808-3.808 3.808-2.093 0-3.807-1.712-3.807-3.808zM15.757 0c-7.471 0-13.728 5.12-15.504 12.033-0.013 0.048-0.013 0.093-0.013 0.16 0 0.417 0.336 0.768 0.767 0.768h6.447c0.307 0 0.577-0.173 0.689-0.444 1.329-2.88 4.24-4.896 7.616-4.896 4.621 0 8.381 3.76 8.381 8.383 0 4.627-3.76 8.387-8.387 8.387-3.373 0-6.285-2-7.613-4.897-0.129-0.253-0.387-0.448-0.689-0.448h-6.444c-0.416 0-0.767 0.337-0.767 0.768 0 0.049 0.019 0.096 0.019 0.16 1.76 6.907 8.027 12.027 15.499 12.027 8.832 0 16-7.167 16-16 0-8.831-7.168-16-16-16z"></path>
</symbol>
<symbol id="icon-gmail" viewBox="0 0 32 32">
<path fill="#d14836" style="fill: var(--color1, #d14836)" d="M32 6v20c0 1.133-0.867 2-2 2h-2v-18.151l-12 8.617-12-8.617v18.151h-2c-1.135 0-2-0.867-2-2v-20c0-0.567 0.216-1.067 0.575-1.424 0.359-0.363 0.86-0.576 1.425-0.576h0.667l13.333 9.667 13.333-9.667h0.667c0.567 0 1.067 0.216 1.425 0.576 0.36 0.357 0.575 0.857 0.575 1.424z"></path>
</symbol>
<symbol id="icon-close" viewBox="0 0 20 20">
<path d="M10 8.586l-7.071-7.071-1.414 1.414 7.071 7.071-7.071 7.071 1.414 1.414 7.071-7.071 7.071 7.071 1.414-1.414-7.071-7.071 7.071-7.071-1.414-1.414-7.071 7.071z"></path>
</symbol>
</defs>
</svg>
